<svg width="512" height="512" viewBox="0 0 512 512" fill="none" xmlns="http://www.w3.org/2000/svg">
<rect width="512" height="512" fill="white"/>
<path d="M340.846 61.3965C318.247 62.9394 291.926 72.7417 271.868 87.1728C263.972 92.8907 247.543 108.956 244.004 114.583C242.642 116.67 241.19 118.576 240.918 118.849C239.738 119.847 232.477 132.463 229.21 139.36C225.035 147.893 219.862 164.502 218.228 174.395C217.592 178.297 216.775 181.474 216.412 181.474C213.962 181.474 197.625 159.328 194.902 152.249C194.176 150.343 193.268 148.8 192.905 148.8C192.542 148.8 191.725 146.894 191.09 144.443C190.455 142.083 189.366 139.088 188.73 137.727C186.824 133.915 183.194 115.581 182.467 106.233C182.104 101.513 181.378 96.7935 180.925 95.6136C179.926 93.5261 173.664 89.8049 171.123 89.8049C168.4 89.8049 162.228 93.6169 161.229 95.8859C159.142 100.515 160.231 119.121 163.499 133.28C167.038 148.528 174.299 164.502 184.827 180.203C192.814 192.093 214.416 212.152 223.673 216.236C227.031 217.688 228.211 217.87 231.116 216.962C234.746 215.872 239.194 211.425 239.194 208.884C239.557 186.829 240.101 179.386 241.825 172.398C250.357 137.636 272.14 110.226 303.181 95.1598C317.612 88.1712 328.684 85.4483 349.469 83.9961C353.009 83.7238 355.913 83.4515 356.004 83.4515C356.094 83.4515 357.637 82.1809 359.452 80.6379C362.357 78.0058 362.629 77.4613 362.629 72.5601C362.629 68.1129 362.266 67.0237 360.179 64.8454C356.185 60.9427 354.098 60.4889 340.846 61.3965Z" fill="#E15860"/>
<path d="M241.916 271.963C239.466 272.871 236.38 276.229 232.205 282.582C226.941 290.388 214.325 303.367 206.519 308.721C186.007 323.062 163.952 330.232 139.991 330.323C118.572 330.323 99.4204 324.696 79.7254 312.443C73.0999 308.359 69.6509 306.725 67.3819 306.725C62.9346 306.725 58.3965 310.083 56.8535 314.621C55.6736 317.889 55.6736 318.705 57.1258 322.427C58.4872 326.057 59.6672 327.237 66.1112 331.321C83.0836 342.212 102.235 349.564 120.024 352.106C128.827 353.286 152.153 353.286 160.503 352.015C167.492 351.017 184.555 346.478 190.001 344.21C197.08 341.305 205.249 337.311 208.334 335.405C222.312 326.42 225.488 324.061 233.838 315.983C238.013 311.989 240.918 309.902 241.372 310.446C241.916 310.9 242.461 317.254 242.642 324.605C242.914 336.313 242.733 339.399 240.736 348.929C237.288 365.084 232.205 377.701 223.31 391.587C220.406 396.034 219.226 398.848 219.226 401.117C219.226 410.465 230.299 415.911 237.65 410.193C242.552 406.291 253.715 386.323 258.162 373.435C267.511 346.479 268.237 317.979 260.341 289.48C257.8 280.586 254.986 275.14 251.719 273.143C248.814 271.418 244.82 270.874 241.916 271.963Z" fill="#3979AE"/>
<path d="M184.01 358.55C172.574 364.268 168.853 377.791 175.751 388.592C184.555 402.206 205.249 400.391 211.965 385.415C216.775 374.978 210.967 361.364 200.257 357.733C195.356 356.009 188.367 356.371 184.01 358.55Z" fill="#3979AE"/>
<path d="M218.708 242.579C217.072 240.54 212.911 238.674 205.564 236.719C196.495 234.19 180.196 226.321 172.649 220.607C152.564 205.675 138.793 187.014 131.138 164.309C124.371 143.987 123.661 124.039 129.064 101.481C130.846 93.9047 131.306 90.1162 130.59 87.9634C129.185 83.7438 124.565 80.499 119.772 80.4687C116.299 80.3814 115.524 80.6395 112.452 83.1928C109.438 85.6314 108.691 87.1236 106.851 94.5279C101.879 114.072 100.954 134.564 104.162 152.246C105.824 160.971 113.193 183.102 117.037 190.624C120.191 196.938 129.887 211.694 133.76 216.145C138.753 221.944 145.122 228.433 147.905 230.758C160.846 241.181 164.089 243.45 174.391 248.82C179.498 251.52 182.396 253.617 182.023 254.219C181.765 254.879 175.909 257.403 168.991 259.897C157.968 263.854 154.983 264.657 145.31 265.773C128.893 267.604 115.317 266.767 99.3319 262.715C94.1946 261.364 91.1524 261.134 88.9995 261.85C80.1298 264.804 78.4609 277.03 86.2086 282.199C91.4597 285.616 113.931 289.901 127.564 290.048C156.094 290.402 183.362 282.089 207.907 265.594C215.544 260.373 219.822 255.983 220.684 252.252C221.403 248.952 220.658 244.991 218.708 242.579Z" fill="#A478AD"/>
<path d="M118.262 214.991C109.224 205.947 95.2176 206.689 87.1492 216.645C77.0133 229.299 85.2728 248.359 101.603 250.001C113.026 251.268 124.108 241.456 124.17 230.148C124.257 224.952 121.705 218.437 118.262 214.991Z" fill="#A478AD"/>
<path d="M274.549 226.069C277.084 226.705 281.527 225.677 288.561 222.793C297.314 219.326 315.056 215.743 324.522 215.734C349.548 215.488 371.798 222.03 391.62 235.491C409.295 247.591 421.919 263.053 431.249 284.289C434.409 291.402 436.332 294.698 438.204 295.98C441.874 298.492 447.515 298.285 451.353 295.412C454.171 293.382 454.633 292.708 455.537 288.817C456.465 285.052 456.157 283.413 453.147 276.402C445.295 257.827 433.645 240.942 420.402 228.796C413.804 222.85 394.557 209.673 386.948 206.004C380.618 202.88 363.974 196.986 358.199 195.782C350.717 194.18 341.721 192.86 338.097 192.69C321.488 192.209 317.534 192.361 306.081 194.31C300.38 195.247 296.804 195.329 296.737 194.623C296.544 193.941 299.683 188.391 303.687 182.221C310.076 172.407 311.969 169.963 319 163.227C330.972 151.845 342.293 144.306 357.477 137.872C362.386 135.843 364.949 134.187 366.23 132.315C371.511 124.601 365.451 113.852 356.154 114.418C349.905 114.869 329.414 125.04 318.464 133.162C295.523 150.125 278.824 173.231 269.24 201.207C266.313 209.982 265.559 216.065 267.127 219.558C268.549 222.622 271.537 225.327 274.549 226.069Z" fill="#F8AE54"/>
<path d="M371.243 187.333C383.909 189.075 394.619 180.018 395.028 167.209C395.454 151.002 377.354 140.81 363.352 149.373C353.486 155.269 350.589 169.784 357.375 178.829C360.445 183.021 366.417 186.669 371.243 187.333Z" fill="#F8AE54"/>
<path d="M212.455 119.184C225.121 120.926 235.831 111.87 236.24 99.0606C236.666 82.8535 218.565 72.6619 204.564 81.2246C194.698 87.1202 191.8 101.636 198.587 110.681C201.657 114.873 207.629 118.521 212.455 119.184Z" fill="#E15860"/>
<path d="M274.822 260.217C274.949 262.827 277.223 266.781 282.025 272.674C287.884 280.044 296.462 295.982 299.219 305.037C306.719 328.915 306.916 352.106 299.789 374.983C293.341 395.409 282.209 411.977 264.596 427.069C258.706 432.158 256.11 434.955 255.427 437.119C254.088 441.36 255.924 446.699 259.787 449.536C262.548 451.645 263.327 451.891 267.312 451.627C271.184 451.421 272.665 450.651 278.5 445.736C293.996 432.829 306.771 416.78 314.55 400.581C318.326 392.542 325.348 370.298 326.65 361.952C327.802 354.987 328.611 337.349 328.087 331.474C327.449 323.848 326.1 314.857 325.211 311.34C320.85 295.306 319.556 291.566 314.367 281.172C311.816 275.988 310.7 272.59 311.356 272.321C311.952 271.939 318.175 273.332 325.24 275.372C336.487 278.637 339.375 279.739 347.862 284.513C362.23 292.665 372.73 301.31 383.295 313.972C386.661 318.081 388.989 320.053 391.153 320.736C400.068 323.551 408.594 314.631 405.355 305.899C403.108 300.05 387.428 283.393 376.477 275.272C353.586 258.242 326.627 248.97 297.073 247.92C287.826 247.666 281.786 248.71 278.898 251.224C276.38 253.475 274.658 257.119 274.822 260.217Z" fill="#42C3B6"/>
<path d="M339.959 341.503C341.969 354.13 353.744 361.75 366.12 358.424C381.754 354.126 386.252 333.847 373.994 322.933C365.488 315.204 350.757 316.644 344.071 325.764C340.95 329.92 339.193 336.693 339.959 341.503Z" fill="#42C3B6"/>
</svg>
